<svg id="Layer_1" data-name="Layer 1" xmlns="http://www.w3.org/2000/svg" viewBox="0 0 50 50"><defs><style>.cls-1{fill:#fff;}.cls-2{fill:#59c4ea;fill-rule:evenodd;}</style></defs><circle class="cls-1" cx="25" cy="25" r="25"/><path class="cls-2" d="M28.22,15.72c.9,0,1.81,0,2.72,0h.38V11c-.49-.05-1-.12-1.5-.14-.93-.05-1.87-.09-2.8-.07a6.91,6.91,0,0,0-4,1.22,5.91,5.91,0,0,0-2.37,3.95,12.45,12.45,0,0,0-.16,2c0,1.06,0,2.12,0,3.18v.4H16v5.29h4.49V40.12H26V26.86h4.49c.23-1.76.45-3.5.69-5.31H26s0-2.62,0-3.76C26.05,16.24,27,15.76,28.22,15.72Z" transform="translate(0 0)"/></svg>