<svg id="Layer_1" data-name="Layer 1" xmlns="http://www.w3.org/2000/svg" viewBox="0 0 11.37 21.78"><defs><style>.cls-1{fill:#fff;fill-rule:evenodd;}</style></defs><path class="cls-1" d="M28.38,17.78c.68,0,1.35,0,2,0h.28V14.27c-.36,0-.74-.09-1.12-.11-.69,0-1.38-.06-2.08-.05a5.13,5.13,0,0,0-2.93.91A4.39,4.39,0,0,0,22.8,18a9.42,9.42,0,0,0-.12,1.51c0,.78,0,1.57,0,2.36v.29H19.31V26h3.34v9.85h4.08V26.05h3.33c.17-1.3.34-2.59.51-3.94h-.74c-.95,0-3.12,0-3.12,0s0-1.94,0-2.78C26.77,18.17,27.46,17.82,28.38,17.78Z" transform="translate(-19.31 -14.11)"/></svg>