<svg id="Layer_1" data-name="Layer 1" xmlns="http://www.w3.org/2000/svg" viewBox="0 0 57.09 52.95"><defs><style>.cls-1{fill:#fff;}</style></defs><path class="cls-1" d="M34.63,48.85a2,2,0,1,0,2,2A2,2,0,0,0,34.63,48.85Z" transform="translate(-22.17 -29.22)"/><path class="cls-1" d="M54,48.64a2.12,2.12,0,1,0,2.12,2.12A2.12,2.12,0,0,0,54,48.64Z" transform="translate(-22.17 -29.22)"/><path class="cls-1" d="M67.05,48.69a2.07,2.07,0,1,0,2.06,2.07A2.07,2.07,0,0,0,67.05,48.69Z" transform="translate(-22.17 -29.22)"/><path class="cls-1" d="M71.62,29.22H29.81a7.64,7.64,0,0,0-7.64,7.63V61.67a7.64,7.64,0,0,0,7.64,7.64H44.58l5,11.83s.34,1,1.18,1h0c.84,0,1.18-1,1.18-1l5-11.83H71.62a7.64,7.64,0,0,0,7.64-7.64V36.85A7.64,7.64,0,0,0,71.62,29.22ZM40.1,51.16c0,4.53-4.71,4.66-4.71,4.66a3.94,3.94,0,0,1-2.84-1.2v.82H29.14V41.35s0,0,0,0h0c.21,0,3.41,0,3.41,0v5.39c.81-1.37,3.13-1.35,3.13-1.35C40.74,45.85,40.1,51.16,40.1,51.16Zm6-5.35v9.65H42.78V45.91c0-1.3-1.62-1.66-1.62-1.66V40.88C46.5,41.1,46.12,45.81,46.12,45.81Zm7.92,10a5.18,5.18,0,1,1,5.61-5.16A5.4,5.4,0,0,1,54,55.83Zm18.32,0s0,4.9-4.93,4.9H65.92V57.55h.91s2.09.2,2.07-3c0,0-.41,1.31-3.35,1.31,0,0-4.16-.3-4.16-4.36V49.93a4.76,4.76,0,0,1,4.67-4.55A3.41,3.41,0,0,1,69,46.68v-1h3.39Z" transform="translate(-22.17 -29.22)"/></svg>