<svg id="Layer_1" data-name="Layer 1" xmlns="http://www.w3.org/2000/svg" viewBox="0 0 46.19 46.17"><defs><style>.cls-1{fill:#fff;}</style></defs><path class="cls-1" d="M72.72,38.5A12.23,12.23,0,0,0,69,30.62a12.78,12.78,0,0,0-8.46-3.44c-5.43-.3-18.32-.49-22.85.25a11.65,11.65,0,0,0-10,9c-1.1,3.93-.88,22-.24,25.93.87,5.31,4,8.72,9.28,10.07,3.64.94,21.55.82,25.56.17A11.71,11.71,0,0,0,72.4,63.34C73.46,59.3,73.09,42.14,72.72,38.5ZM68.47,61.58a7.82,7.82,0,0,1-7.35,7c-3.73.41-20.37.64-23.82-.33a7.57,7.57,0,0,1-5.75-6.52c-.52-3.18-.65-19.06,0-23.31a7.81,7.81,0,0,1,7.32-6.95c4.1-.46,18.82-.51,22.74.09a7.81,7.81,0,0,1,7,7.37C69,42.69,69.09,57.5,68.47,61.58ZM50,38.16A11.85,11.85,0,1,0,61.84,50,11.85,11.85,0,0,0,50,38.16Zm-.08,19.49a7.66,7.66,0,1,1,7.73-7.59A7.65,7.65,0,0,1,49.92,57.65ZM65.08,37.71a2.77,2.77,0,1,1-2.76-2.78A2.78,2.78,0,0,1,65.08,37.71Z" transform="translate(-26.9 -26.92)"/></svg>