<svg id="Layer_1" data-name="Layer 1" xmlns="http://www.w3.org/2000/svg" viewBox="0 0 639.37 447.66"><defs><style>.cls-1{fill:#69cdff;}</style></defs><path class="cls-1" d="M647.18,181.19a80.11,80.11,0,0,0-56.35-56.36c-50-13.69-250.17-13.69-250.17-13.69s-200.13,0-250.16,13.17c-26.86,7.37-49,29.49-56.35,56.88C21,231.22,21,335,21,335s0,104.28,13.17,153.79A80.08,80.08,0,0,0,90.5,545.11c50.56,13.7,250.17,13.7,250.17,13.7s200.13,0,250.16-13.17a80.14,80.14,0,0,0,56.36-56.36c13.16-50,13.16-153.78,13.16-153.78S660.88,231.22,647.18,181.19ZM276.94,430.83V239.12L443.36,335Z" transform="translate(-20.98 -111.14)"/></svg>