<svg id="Layer_1" data-name="Layer 1" xmlns="http://www.w3.org/2000/svg" viewBox="0 0 50 50"><defs><style>.cls-1{fill:#fff;}.cls-2{fill:#59c4ea;}</style></defs><circle class="cls-1" cx="25" cy="25" r="25"/><path class="cls-1" d="M38.29,18.45a7.08,7.08,0,0,0-2.14-4.52,7.36,7.36,0,0,0-4.86-2c-3.11-.17-10.5-.27-13.1.15a6.67,6.67,0,0,0-5.72,5.14c-.64,2.26-.51,12.64-.14,14.87a6.69,6.69,0,0,0,5.32,5.77c2.09.54,12.35.47,14.66.1a6.7,6.7,0,0,0,5.8-5.29C38.71,30.38,38.5,20.54,38.29,18.45ZM35.85,31.69a4.49,4.49,0,0,1-4.21,4C29.5,35.92,20,36.05,18,35.5a4.35,4.35,0,0,1-3.29-3.74,88.9,88.9,0,0,1,0-13.37,4.48,4.48,0,0,1,4.2-4,94.37,94.37,0,0,1,13,.05,4.5,4.5,0,0,1,4,4.22A95.85,95.85,0,0,1,35.85,31.69ZM25.27,18.26a6.79,6.79,0,1,0,6.78,6.79A6.8,6.8,0,0,0,25.27,18.26Zm-.05,11.18a4.39,4.39,0,1,1,4.43-4.35A4.39,4.39,0,0,1,25.22,29.44ZM33.91,18a1.59,1.59,0,1,1-1.58-1.59A1.59,1.59,0,0,1,33.91,18Z" transform="translate(0 0)"/><path class="cls-2" d="M38.29,18.45a7.08,7.08,0,0,0-2.14-4.52,7.36,7.36,0,0,0-4.86-2c-3.11-.17-10.5-.27-13.1.15a6.67,6.67,0,0,0-5.72,5.14c-.64,2.26-.51,12.64-.14,14.87a6.69,6.69,0,0,0,5.32,5.77c2.09.54,12.35.47,14.66.1a6.7,6.7,0,0,0,5.8-5.29C38.71,30.38,38.5,20.54,38.29,18.45ZM35.85,31.69a4.49,4.49,0,0,1-4.21,4C29.5,35.92,20,36.05,18,35.5a4.35,4.35,0,0,1-3.29-3.74,88.9,88.9,0,0,1,0-13.37,4.48,4.48,0,0,1,4.2-4,94.37,94.37,0,0,1,13,.05,4.5,4.5,0,0,1,4,4.22A95.85,95.85,0,0,1,35.85,31.69ZM25.27,18.26a6.79,6.79,0,1,0,6.78,6.79A6.8,6.8,0,0,0,25.27,18.26Zm-.05,11.18a4.39,4.39,0,1,1,4.43-4.35A4.39,4.39,0,0,1,25.22,29.44ZM33.91,18a1.59,1.59,0,1,1-1.58-1.59A1.59,1.59,0,0,1,33.91,18Z" transform="translate(0 0)"/></svg>