<svg id="Layer_1" data-name="Layer 1" xmlns="http://www.w3.org/2000/svg" viewBox="0 0 50 50"><defs><style>.cls-1{fill:#fff;}.cls-2{fill:#5ac4ea;fill-rule:evenodd;}</style></defs><circle class="cls-1" cx="25" cy="25" r="25"/><path class="cls-2" d="M14.56,33.68a3.09,3.09,0,0,1-2-2c-.87-2.41-1.13-12.46.55-14.44a3.29,3.29,0,0,1,2.2-1.17c4.53-.49,18.54-.42,20.16.16a3.13,3.13,0,0,1,2,1.91c1,2.49,1,11.52-.12,13.92a3.1,3.1,0,0,1-1.43,1.43C34.19,34.42,16.78,34.41,14.56,33.68ZM21.76,29l8.17-4.23-8.17-4.26Z" transform="translate(0 0)"/></svg>